<?xml version="1.0" encoding="utf-8"?>
<!-- Generator: Adobe Illustrator 26.0.0, SVG Export Plug-In . SVG Version: 6.00 Build 0)  -->
<svg version="1.1" id="Слой_2" xmlns="http://www.w3.org/2000/svg" xmlns:xlink="http://www.w3.org/1999/xlink" x="0px" y="0px"
	 viewBox="0 0 792.9 246.1" style="enable-background:new 0 0 792.9 246.1;" xml:space="preserve">
<style type="text/css">
	.st0{fill:#020202;}
</style>
<g>
	<path d="M398.7,169c-9.8,0-19-4.5-24-11.6c-4.7-6.7-5.4-15.3-2.1-24.1c4.8-13,18-21.8,30.4-26.5c-3.7-1-7.2-2.5-10.6-4.5
		c-7-4-18,0.2-18.1,0.2l-2.1-5.6c0.6-0.2,13.8-5.2,23.2,0.2c7.3,4.2,14.6,5.8,26.1,5.8v6c-9.5,0-36.3,7.9-43.2,26.5
		c-2.6,7.1-2.1,13.5,1.4,18.6c3.9,5.6,11.2,9,19.1,9c14.6,0,21.2-3.4,21.3-3.4l2.9,5.3C422.5,165,415.1,169,398.7,169z"/>
</g>
<path class="st0" d="M516,211.7c4.2-0.2,6.9-0.1,7.1-2.1c0.2-2-3.4-1.5-9.3-1.3c-5.8,0.2-9.3-0.2-10.5,1.7s1.8,1.8,1.8,1.8
	s-7,13.7-8.7,18.8c-1.7,5.1-2.7,11,1.3,12.2s8.2,0.5,14.6-3.8c6.4-4.3,6.2-10.3,3.6-14c-2.6-3.7-11.5-3.2-11.5-3.2l4.4-10
	C508.9,211.7,511.8,211.9,516,211.7z M511.6,226.1c2.9,2.1,3.2,5.3,0.7,8.3c-2.5,3-5.8,4.4-9.1,5c-3.3,0.6-4.5,0.2-4.5-0.7
	c0-1.5-0.8-4.9,4.3-14.2C503,224.5,508.7,224.1,511.6,226.1z"/>
<path class="st0" d="M533.1,224.5c-2.4-1.5-9.1-1.8-12.7,5.7c-3.6,7.5-0.2,12,3.4,12.9c3.7,0.9,7.8-2.7,8.3-4.6c0.5-1.8-2-2.8-3.1-1
	c-1.1,1.8-3,2.4-5.3,1.4c-2.3-1.1-1-5.2-1-5.2s6.8,0.8,9.6-1.7C535.2,229.6,535.5,226,533.1,224.5z M524.5,230.6
	c2-4.5,6.1-4.4,6.8-2.9C531.8,229,529.9,231,524.5,230.6z"/>
<path class="st0" d="M541.3,231.4c0,0,0.9-3.2,1.2-4.7c0.3-1.5,0.4-3-1.4-3.2c-1.8-0.2-2.9,2.7-3.5,7.1c-0.7,4.4-1.3,8.4-1.3,9.6
	c0,1.2,1.2,2.3,2.7,1.4s2.4-3.2,3.8-5.9c1.4-2.7,2.4-4.4,3.9-3.7c1.4,0.7,0.9,3.3-0.3,5.3s-1.6,4.2-0.1,4.2s2.9-2,4.4-4.3
	c1.5-2.3,2.2-3.2,3.4-2.9c1.2,0.4,1.7,2.3,1.6,4.8c-0.1,2.5,2.4,2.8,3.1,1.7s0.8-3,0.4-6.1s-0.9-4.7-3.1-5.3c-2.3-0.6-4.4,0.7-5.2,2
	c0.5-2.2-0.4-5.6-3.8-4.9C543.7,227.4,541.3,231.4,541.3,231.4z"/>
<path class="st0" d="M578.8,228.2c-0.5-3.8-4.4-6.4-8.4-2.9c-3.1,2.7-7.2,5.9-7.4,10.9c-0.1,5,3.3,9.2,9.2,4.4
	C578.2,235.8,579.3,232,578.8,228.2z M575.1,230.6c-0.2,2.3-2.1,4.2-4.9,7c-2.9,2.9-4.2,0.4-3.7-2.1s3.4-6.5,5.5-7.2
	C574,227.6,575.4,228.3,575.1,230.6z"/>
<path class="st0" d="M586.4,232.1c0,0,3.6-6.7,2.7-8c-0.9-1.2-3.1-0.7-4.7,2.9c-1.5,3.6-4.2,10.9-5,13.5c-0.8,2.7,1.2,3.3,3,2.6
	c1.8-0.7,3.3-7,3.3-7l4.9-0.5c0,0-1.8,6.7,0.3,6.7s3.6-0.2,4.3-4.5c0.7-4.3,2.2-7.8,3.3-9.7c1.1-1.9-1.1-4.7-3.6-2.8
	s-3.6,6.2-3.6,6.2L586.4,232.1z"/>
<g>
	<polygon points="792.9,235.5 681.6,235.5 681.6,231.5 788.9,231.5 788.9,4 4,4 4,231.5 415.5,231.5 415.5,235.5 0,235.5 0,0 
		792.9,0 	"/>
</g>
</svg>
