<svg width="85" height="71" viewBox="0 0 85 71" fill="none" xmlns="http://www.w3.org/2000/svg">
<path fill-rule="evenodd" clip-rule="evenodd" d="M2.27051 64.6613H3.03158V69.3448H2.27051V64.6613ZM3.68205 64.6613C4.07671 64.6613 4.42252 64.7241 4.7196 64.8499C5.01663 64.9757 5.26381 65.1427 5.46113 65.3508C5.65846 65.5589 5.80588 65.7953 5.90345 66.0599C6.00107 66.3244 6.04986 66.5954 6.04986 66.873C6.04986 67.2589 6.00865 67.5885 5.92624 67.8617C5.84383 68.1349 5.73868 68.3637 5.61074 68.548C5.4828 68.7323 5.33971 68.8776 5.18146 68.9838C5.02314 69.09 4.87028 69.1691 4.72286 69.2212C4.57538 69.2732 4.43986 69.3069 4.3163 69.322C4.19269 69.3372 4.10056 69.3448 4.03982 69.3448H3.29178V68.7854H3.78613C4.30221 68.7854 4.67514 68.6206 4.90497 68.291C5.1348 67.9614 5.24972 67.4822 5.24972 66.8534C5.24972 66.6583 5.22586 66.4653 5.1782 66.2745C5.13048 66.0837 5.04049 65.9113 4.90823 65.7574C4.77596 65.6034 4.59492 65.4787 4.36509 65.3833C4.13526 65.2879 3.83817 65.2402 3.47389 65.2402H3.29178V64.6613H3.68205ZM7.8647 65.7606H7.09061V69.3448H7.8647V65.7606ZM7.93628 64.6157C7.93628 64.7415 7.89182 64.8488 7.80289 64.9378C7.71403 65.0266 7.60669 65.0711 7.48094 65.0711C7.35519 65.0711 7.24785 65.0266 7.15893 64.9378C7.07001 64.8488 7.0256 64.7415 7.0256 64.6157C7.0256 64.49 7.07001 64.3827 7.15893 64.2937C7.24785 64.2049 7.35519 64.1604 7.48094 64.1604C7.60669 64.1604 7.71403 64.2049 7.80289 64.2937C7.89182 64.3827 7.93628 64.49 7.93628 64.6157ZM10.252 69.3773C10.0135 69.3773 9.80535 69.3253 9.62756 69.2212C9.44977 69.1171 9.30229 68.9784 9.18525 68.8049C9.06814 68.6315 8.98141 68.4319 8.92505 68.2064C8.86868 67.981 8.84044 67.7468 8.84044 67.5039C8.84044 67.1743 8.88603 66.8968 8.97709 66.6713C9.06814 66.4458 9.18525 66.2626 9.32834 66.1216C9.47144 65.9807 9.63082 65.8799 9.80642 65.8191C9.98207 65.7584 10.1545 65.7281 10.3236 65.7281C10.4537 65.7281 10.5784 65.7433 10.6976 65.7736C10.8168 65.804 10.9242 65.8473 11.0196 65.9037V66.5737C10.9502 66.4957 10.8711 66.4338 10.7822 66.3883C10.6933 66.3428 10.5946 66.3201 10.4862 66.3201C10.3604 66.3201 10.2455 66.3526 10.1415 66.4176C10.0374 66.4826 9.94957 66.5705 9.87799 66.681C9.80642 66.7916 9.75118 66.9218 9.7121 67.0714C9.67309 67.221 9.65355 67.3782 9.65355 67.5429C9.65355 67.7121 9.67415 67.8715 9.71536 68.0211C9.75657 68.1707 9.81405 68.3008 9.88776 68.4113C9.96147 68.5219 10.0504 68.6097 10.1545 68.6748C10.2586 68.7399 10.3735 68.7724 10.4992 68.7724C10.6033 68.7724 10.6987 68.7507 10.7854 68.7074C10.8721 68.664 10.9502 68.6054 11.0196 68.5317V69.1952C10.9199 69.2472 10.8038 69.2906 10.6716 69.3253C10.5393 69.36 10.3995 69.3773 10.252 69.3773ZM12.0539 65.7606L12.0473 69.3448C12.03 69.605 11.978 69.8262 11.8912 70.0083C11.8045 70.1904 11.6928 70.34 11.5563 70.4571C11.4197 70.5742 11.2624 70.6588 11.0846 70.7108C10.9068 70.7629 10.716 70.7889 10.5122 70.7889C10.2737 70.7889 10.0395 70.7477 9.80967 70.6653C9.57984 70.5829 9.38903 70.4441 9.23729 70.249L9.6796 69.8067C9.72294 69.8804 9.77717 69.94 9.84223 69.9855C9.90724 70.031 9.97556 70.0669 10.0471 70.0929C10.1187 70.1189 10.1892 70.1373 10.2586 70.1481C10.3279 70.159 10.3886 70.1644 10.4407 70.1644C10.7052 70.1644 10.9112 70.0885 11.0586 69.9367C11.2061 69.785 11.2798 69.5248 11.2798 69.1562V66.1249L11.3644 65.7606H12.0539ZM14.0574 65.7606H13.2833V69.3448H14.0574V65.7606ZM14.129 64.6157C14.129 64.7415 14.0845 64.8488 13.9956 64.9378C13.9067 65.0266 13.7994 65.0711 13.6736 65.0711C13.5479 65.0711 13.4405 65.0266 13.3516 64.9378C13.2627 64.8488 13.2183 64.7415 13.2183 64.6157C13.2183 64.49 13.2627 64.3827 13.3516 64.2937C13.4405 64.2049 13.5479 64.1604 13.6736 64.1604C13.7994 64.1604 13.9067 64.2049 13.9956 64.2937C14.0845 64.3827 14.129 64.49 14.129 64.6157ZM16.165 68.2585C16.165 68.4016 16.1845 68.5133 16.2235 68.5935C16.2626 68.6737 16.3168 68.7355 16.3862 68.7789C16.4556 68.8223 16.5336 68.8493 16.6203 68.8602C16.7071 68.8711 16.8003 68.8764 16.9001 68.8764V69.3448C16.8436 69.3534 16.7873 69.36 16.7309 69.3643C16.6832 69.3687 16.6268 69.3719 16.5618 69.3741C16.4968 69.3762 16.4317 69.3773 16.3666 69.3773C16.3016 69.3773 16.2376 69.3752 16.1748 69.3708C16.1119 69.3665 16.0566 69.36 16.0089 69.3513C15.8658 69.3253 15.753 69.2624 15.6706 69.1627C15.5882 69.0629 15.5275 68.9534 15.4885 68.8342C15.4495 68.7149 15.4245 68.5978 15.4137 68.4829C15.4029 68.368 15.3974 68.278 15.3974 68.2129V66.281H14.929V65.7606H15.3974V64.7458H16.165V65.7606H16.7374V66.281H16.165V68.2585ZM18.4287 68.265C18.4287 68.4558 18.4677 68.5978 18.5458 68.6911C18.6239 68.7843 18.7366 68.8396 18.8841 68.857V69.3708C18.8667 69.3752 18.8385 69.3773 18.7995 69.3773C18.6564 69.3773 18.5187 69.3578 18.3864 69.3188C18.2542 69.2797 18.1371 69.2179 18.0352 69.1334C17.9332 69.0488 17.853 68.9372 17.7945 68.7984C17.736 68.6596 17.7067 68.4884 17.7067 68.2845C17.7067 68.0894 17.7479 67.9213 17.8303 67.7804C17.9126 67.6394 18.0189 67.5234 18.149 67.4324C18.2791 67.3413 18.4265 67.273 18.5914 67.2275C18.7561 67.182 18.9231 67.1592 19.0922 67.1592H19.3719V67.608H19.2353C19.1486 67.608 19.0586 67.6167 18.9653 67.634C18.8722 67.6514 18.7854 67.6839 18.7052 67.7316C18.6249 67.7793 18.5588 67.8465 18.5068 67.9333C18.4547 68.02 18.4287 68.1306 18.4287 68.265ZM20.3997 68.2845C20.3997 68.3192 20.4019 68.3691 20.4062 68.4341C20.4105 68.4992 20.4192 68.5653 20.4322 68.6325C20.4452 68.6997 20.4658 68.7615 20.494 68.8179C20.5222 68.8743 20.5601 68.9111 20.6078 68.9285L20.3997 69.3513C20.3433 69.3513 20.2848 69.3383 20.2241 69.3123C20.1633 69.2863 20.1048 69.2505 20.0484 69.205C19.9921 69.1594 19.9433 69.1074 19.9021 69.0488C19.8609 68.9903 19.8316 68.9285 19.8143 68.8634C19.7709 68.9675 19.6863 69.0607 19.5606 69.1432C19.4348 69.2256 19.2961 69.2863 19.1443 69.3253V68.8439C19.244 68.8223 19.3361 68.7811 19.4207 68.7203C19.5053 68.6596 19.5757 68.5859 19.6321 68.4992V67.1592C19.6321 66.951 19.6213 66.7862 19.5996 66.6648C19.5779 66.5434 19.5421 66.4534 19.4923 66.3948C19.4424 66.3363 19.3806 66.2995 19.3069 66.2842C19.2331 66.2691 19.1443 66.2615 19.0402 66.2615C18.9491 66.2615 18.8624 66.2734 18.78 66.2973C18.6976 66.3211 18.6217 66.3493 18.5523 66.3818C18.483 66.4144 18.4211 66.4491 18.3669 66.4859C18.3127 66.5228 18.2726 66.552 18.2466 66.5737L17.9604 66.1379C18.0038 66.0902 18.0677 66.0425 18.1522 65.9948C18.2368 65.9471 18.3344 65.9037 18.445 65.8647C18.5555 65.8256 18.6759 65.7942 18.806 65.7703C18.9361 65.7465 19.0706 65.7346 19.2093 65.7346C19.3351 65.7346 19.4586 65.7476 19.5801 65.7736C19.7015 65.7996 19.8121 65.8419 19.9118 65.9005C20.0115 65.959 20.0983 66.0381 20.172 66.1379C20.2458 66.2376 20.2978 66.3612 20.3282 66.5087C20.3585 66.6561 20.378 66.8057 20.3867 66.9575C20.3954 67.1093 20.3997 67.2589 20.3997 67.4063V68.2325V68.2845ZM22.3772 68.252C22.3772 68.3951 22.3967 68.5078 22.4357 68.5902C22.4747 68.6727 22.5279 68.7344 22.5951 68.7756C22.6623 68.8168 22.7392 68.8439 22.826 68.857C22.9127 68.8699 23.006 68.8764 23.1057 68.8764V69.3448C23.0494 69.3534 22.9929 69.36 22.9366 69.3643C22.8889 69.3687 22.8336 69.3719 22.7707 69.3741C22.7078 69.3762 22.6439 69.3773 22.5788 69.3773C22.5138 69.3773 22.4498 69.3752 22.3869 69.3708C22.3241 69.3665 22.2688 69.36 22.221 69.3513C22.0779 69.3209 21.9652 69.257 21.8828 69.1594C21.8004 69.0619 21.7386 68.9534 21.6974 68.8342C21.6562 68.7149 21.6302 68.5978 21.6193 68.4829C21.6085 68.368 21.6031 68.278 21.6031 68.2129V68.1349V64.4076H22.3772V68.252ZM25.7077 64.6613H26.4818L27.7373 67.5559V68.7268H27.5356L26.4818 66.1249V69.3448H25.7077V64.6613ZM29.2594 64.6613H30.0334V69.3448H29.2594V66.1249L28.2121 68.7268H27.9974V67.569L29.2594 64.6613ZM31.7898 68.265C31.7898 68.4558 31.8288 68.5978 31.9069 68.6911C31.9849 68.7843 32.0977 68.8396 32.2451 68.857V69.3708C32.2278 69.3752 32.1996 69.3773 32.1606 69.3773C32.0174 69.3773 31.8798 69.3578 31.7475 69.3188C31.6152 69.2797 31.4981 69.2179 31.3962 69.1334C31.2943 69.0488 31.2141 68.9372 31.1555 68.7984C31.097 68.6596 31.0677 68.4884 31.0677 68.2845C31.0677 68.0894 31.1089 67.9213 31.1913 67.7804C31.2737 67.6394 31.38 67.5234 31.51 67.4324C31.6402 67.3413 31.7876 67.273 31.9524 67.2275C32.1172 67.182 32.2841 67.1592 32.4533 67.1592H32.7329V67.608H32.5964C32.5096 67.608 32.4196 67.6167 32.3264 67.634C32.2332 67.6514 32.1465 67.6839 32.0663 67.7316C31.986 67.7793 31.9198 67.8465 31.8678 67.9333C31.8158 68.02 31.7898 68.1306 31.7898 68.265ZM33.7607 68.2845C33.7607 68.3192 33.7629 68.3691 33.7672 68.4341C33.7716 68.4992 33.7803 68.5653 33.7933 68.6325C33.8063 68.6997 33.8269 68.7615 33.855 68.8179C33.8832 68.8743 33.9212 68.9111 33.9689 68.9285L33.7607 69.3513C33.7044 69.3513 33.6458 69.3383 33.5851 69.3123C33.5244 69.2863 33.4658 69.2505 33.4095 69.205C33.3531 69.1594 33.3043 69.1074 33.2631 69.0488C33.2219 68.9903 33.1927 68.9285 33.1753 68.8634C33.1319 68.9675 33.0474 69.0607 32.9216 69.1432C32.7958 69.2256 32.6571 69.2863 32.5053 69.3253V68.8439C32.6051 68.8223 32.6972 68.7811 32.7817 68.7203C32.8663 68.6596 32.9368 68.5859 32.9932 68.4992V67.1592C32.9932 66.951 32.9823 66.7862 32.9606 66.6648C32.939 66.5434 32.9032 66.4534 32.8533 66.3948C32.8035 66.3363 32.7417 66.2995 32.6679 66.2842C32.5942 66.2691 32.5053 66.2615 32.4012 66.2615C32.3102 66.2615 32.2234 66.2734 32.141 66.2973C32.0586 66.3211 31.9827 66.3493 31.9134 66.3818C31.844 66.4144 31.7822 66.4491 31.728 66.4859C31.6738 66.5228 31.6336 66.552 31.6077 66.5737L31.3214 66.1379C31.3648 66.0902 31.4287 66.0425 31.5133 65.9948C31.5979 65.9471 31.6955 65.9037 31.8061 65.8647C31.9166 65.8256 32.0369 65.7942 32.1671 65.7703C32.2972 65.7465 32.4316 65.7346 32.5704 65.7346C32.6961 65.7346 32.8197 65.7476 32.9411 65.7736C33.0625 65.7996 33.1731 65.8419 33.2729 65.9005C33.3726 65.959 33.4593 66.0381 33.5331 66.1379C33.6068 66.2376 33.6588 66.3612 33.6892 66.5087C33.7195 66.6561 33.7391 66.8057 33.7477 66.9575C33.7564 67.1093 33.7607 67.2589 33.7607 67.4063V68.2325V68.2845ZM35.6602 65.7606L35.7447 66.1314V68.0764V68.0894V69.3448H34.9771V65.7606H35.6602ZM36.0049 65.9232C36.109 65.8625 36.2358 65.8159 36.3855 65.7834C36.5351 65.7509 36.7378 65.7346 36.9937 65.7346V66.5347C36.8766 66.5 36.7313 66.4826 36.5578 66.4826C36.4668 66.4826 36.3735 66.4891 36.2781 66.5022C36.1827 66.5152 36.0917 66.5369 36.0049 66.5672V65.9232ZM39.3419 67.5494L40.7665 69.3448H39.8883L38.8475 67.9723V67.0876L39.7387 65.7606H40.6038L39.3419 67.5494ZM37.8133 69.3448V64.4076H38.5873V69.3448H37.8133ZM43.2188 65.7281C43.4487 65.7497 43.6557 65.8116 43.84 65.9135C44.0243 66.0154 44.1815 66.1466 44.3116 66.307C44.4417 66.4675 44.5414 66.6518 44.6108 66.8599C44.6802 67.0681 44.7149 67.2849 44.7149 67.5104C44.7149 67.6102 44.7084 67.7121 44.6954 67.8162H42.5162V67.2567H43.9863C43.9863 67.1483 43.9679 67.0421 43.931 66.938C43.8942 66.8339 43.8411 66.7385 43.7717 66.6518C43.7023 66.565 43.621 66.4924 43.5277 66.4338C43.4346 66.3753 43.3315 66.3395 43.2188 66.3265V65.7281ZM43.1928 68.7464C43.2405 68.7464 43.299 68.7409 43.3684 68.7301C43.4378 68.7193 43.5115 68.7008 43.5896 68.6748C43.6676 68.6488 43.7457 68.6141 43.8238 68.5707C43.9018 68.5274 43.9712 68.4753 44.0319 68.4146L44.3116 68.8439C44.1728 69.0174 44.0102 69.1486 43.8238 69.2375C43.6373 69.3264 43.3987 69.3708 43.1082 69.3708C42.874 69.3708 42.6561 69.3231 42.4545 69.2277C42.2528 69.1323 42.0794 69.0022 41.9341 68.8374C41.7888 68.6727 41.6739 68.4797 41.5893 68.2585C41.5047 68.0373 41.4625 67.801 41.4625 67.5494C41.4625 67.3066 41.5015 67.0767 41.5796 66.8599C41.6576 66.6431 41.7649 66.4534 41.9015 66.2908C42.0382 66.1281 42.1964 65.9959 42.3764 65.894C42.5564 65.7921 42.7505 65.7346 42.9586 65.7216V66.333C42.8025 66.3634 42.6735 66.4273 42.5715 66.5249C42.4697 66.6225 42.3894 66.7331 42.3309 66.8567C42.2723 66.9803 42.2322 67.1082 42.2105 67.2404C42.1888 67.3727 42.178 67.4866 42.178 67.582C42.178 67.7468 42.1975 67.8996 42.2366 68.0406C42.2756 68.1815 42.3374 68.304 42.4219 68.4081C42.5065 68.5122 42.6117 68.5946 42.7374 68.6553C42.8632 68.716 43.015 68.7464 43.1928 68.7464ZM46.7965 68.2585C46.7965 68.4016 46.816 68.5133 46.855 68.5935C46.894 68.6737 46.9483 68.7355 47.0176 68.7789C47.087 68.8223 47.1651 68.8493 47.2518 68.8602C47.3385 68.8711 47.4318 68.8764 47.5315 68.8764V69.3448C47.4751 69.3534 47.4188 69.36 47.3624 69.3643C47.3147 69.3687 47.2583 69.3719 47.1932 69.3741C47.1282 69.3762 47.0632 69.3773 46.9981 69.3773C46.933 69.3773 46.8691 69.3752 46.8062 69.3708C46.7434 69.3665 46.6881 69.36 46.6403 69.3513C46.4972 69.3253 46.3845 69.2624 46.3021 69.1627C46.2197 69.0629 46.159 68.9534 46.1199 68.8342C46.0809 68.7149 46.056 68.5978 46.0452 68.4829C46.0343 68.368 46.0289 68.278 46.0289 68.2129V66.281H45.5605V65.7606H46.0289V64.7458H46.7965V65.7606H47.3689V66.281H46.7965V68.2585ZM49.2033 65.7606H48.4292V69.3448H49.2033V65.7606ZM49.2749 64.6157C49.2749 64.7415 49.2304 64.8488 49.1415 64.9378C49.0526 65.0266 48.9453 65.0711 48.8195 65.0711C48.6938 65.0711 48.5864 65.0266 48.4975 64.9378C48.4086 64.8488 48.3642 64.7415 48.3642 64.6157C48.3642 64.49 48.4086 64.3827 48.4975 64.2937C48.5864 64.2049 48.6938 64.1604 48.8195 64.1604C48.9453 64.1604 49.0526 64.2049 49.1415 64.2937C49.2304 64.3827 49.2749 64.49 49.2749 64.6157ZM50.9727 65.7606L51.0572 66.1249V69.3448H50.2896V65.7606H50.9727ZM52.9566 66.1574C53.0303 66.2311 53.0867 66.3146 53.1257 66.4079C53.1648 66.5011 53.194 66.5997 53.2136 66.7038C53.2331 66.8079 53.245 66.913 53.2494 67.0193C53.2537 67.1255 53.2559 67.2285 53.2559 67.3283V69.2147V69.3448H52.4818V67.3933C52.4818 67.2502 52.4753 67.1126 52.4622 66.9803C52.4493 66.848 52.42 66.732 52.3744 66.6322C52.3289 66.5325 52.265 66.4534 52.1826 66.3948C52.1001 66.3363 51.9874 66.307 51.8443 66.307C51.7836 66.307 51.7044 66.3168 51.6068 66.3363C51.5093 66.3558 51.4128 66.3873 51.3174 66.4306V65.9427C51.4301 65.882 51.5537 65.83 51.6882 65.7866C51.8226 65.7433 51.9527 65.7216 52.0785 65.7216C52.2693 65.7216 52.4308 65.7617 52.5631 65.8419C52.6954 65.9221 52.8265 66.0273 52.9566 66.1574ZM55.6237 69.3773C55.3851 69.3773 55.177 69.3253 54.9992 69.2212C54.8214 69.1171 54.6739 68.9784 54.5569 68.8049C54.4398 68.6315 54.353 68.4319 54.2967 68.2064C54.2403 67.981 54.2121 67.7468 54.2121 67.5039C54.2121 67.1743 54.2577 66.8968 54.3487 66.6713C54.4398 66.4458 54.5569 66.2626 54.7 66.1216C54.8431 65.9807 55.0024 65.8799 55.178 65.8191C55.3537 65.7584 55.5261 65.7281 55.6952 65.7281C55.8253 65.7281 55.95 65.7433 56.0692 65.7736C56.1885 65.804 56.2958 65.8473 56.3913 65.9037V66.5737C56.3219 66.4957 56.2427 66.4338 56.1538 66.3883C56.0649 66.3428 55.9662 66.3201 55.8578 66.3201C55.7321 66.3201 55.6172 66.3526 55.5131 66.4176C55.409 66.4826 55.3212 66.5705 55.2496 66.681C55.178 66.7916 55.1228 66.9218 55.0837 67.0714C55.0447 67.221 55.0252 67.3782 55.0252 67.5429C55.0252 67.7121 55.0458 67.8715 55.087 68.0211C55.1282 68.1707 55.1857 68.3008 55.2594 68.4113C55.3331 68.5219 55.422 68.6097 55.5261 68.6748C55.6302 68.7399 55.7451 68.7724 55.8708 68.7724C55.9749 68.7724 56.0703 68.7507 56.157 68.7074C56.2438 68.664 56.3219 68.6054 56.3913 68.5317V69.1952C56.2915 69.2472 56.1754 69.2906 56.0432 69.3253C55.9109 69.36 55.7711 69.3773 55.6237 69.3773ZM57.4255 65.7606L57.419 69.3448C57.4016 69.605 57.3496 69.8262 57.2629 70.0083C57.1761 70.1904 57.0645 70.34 56.9279 70.4571C56.7913 70.5742 56.634 70.6588 56.4563 70.7108C56.2785 70.7629 56.0877 70.7889 55.8839 70.7889C55.6453 70.7889 55.4111 70.7477 55.1813 70.6653C54.9515 70.5829 54.7607 70.4441 54.6089 70.249L55.0512 69.8067C55.0946 69.8804 55.1488 69.94 55.2139 69.9855C55.2789 70.031 55.3472 70.0669 55.4188 70.0929C55.4903 70.1189 55.5608 70.1373 55.6302 70.1481C55.6995 70.159 55.7603 70.1644 55.8123 70.1644C56.0768 70.1644 56.2828 70.0885 56.4303 69.9367C56.5777 69.785 56.6514 69.5248 56.6514 69.1562V66.1249L56.736 65.7606H57.4255ZM64.2817 69.3448H63.4946L62.2781 65.8387L61.0552 69.3448H60.2617L61.8944 64.6678H62.6554L64.2817 69.3448ZM62.701 67.8552L62.8831 68.3756H61.6667L61.8489 67.8552H62.701ZM66.5324 69.3773C66.2938 69.3773 66.0857 69.3253 65.9079 69.2212C65.7301 69.1171 65.5826 68.9784 65.4656 68.8049C65.3485 68.6315 65.2617 68.4319 65.2054 68.2064C65.149 67.981 65.1208 67.7468 65.1208 67.5039C65.1208 67.1743 65.1664 66.8968 65.2574 66.6713C65.3485 66.4458 65.4656 66.2626 65.6087 66.1216C65.7518 65.9807 65.9111 65.8799 66.0867 65.8191C66.2624 65.7584 66.4348 65.7281 66.6039 65.7281C66.734 65.7281 66.8587 65.7433 66.9779 65.7736C67.0972 65.804 67.2045 65.8473 67.2999 65.9037V66.5737C67.2306 66.4957 67.1514 66.4338 67.0625 66.3883C66.9736 66.3428 66.8749 66.3201 66.7665 66.3201C66.6408 66.3201 66.5259 66.3526 66.4218 66.4176C66.3177 66.4826 66.2299 66.5705 66.1583 66.681C66.0867 66.7916 66.0315 66.9218 65.9924 67.0714C65.9534 67.221 65.9339 67.3782 65.9339 67.5429C65.9339 67.7121 65.9545 67.8715 65.9957 68.0211C66.0369 68.1707 66.0944 68.3008 66.1681 68.4113C66.2418 68.5219 66.3307 68.6097 66.4348 68.6748C66.5389 68.7399 66.6538 68.7724 66.7795 68.7724C66.8836 68.7724 66.979 68.7507 67.0657 68.7074C67.1525 68.664 67.2306 68.6054 67.2999 68.5317V69.1952C67.2002 69.2472 67.0842 69.2906 66.9519 69.3253C66.8196 69.36 66.6798 69.3773 66.5324 69.3773ZM68.3342 65.7606L68.3277 69.3448C68.3103 69.605 68.2583 69.8262 68.1716 70.0083C68.0848 70.1904 67.9732 70.34 67.8366 70.4571C67.7 70.5742 67.5427 70.6588 67.365 70.7108C67.1872 70.7629 66.9964 70.7889 66.7926 70.7889C66.554 70.7889 66.3198 70.7477 66.09 70.6653C65.8602 70.5829 65.6693 70.4441 65.5176 70.249L65.9599 69.8067C66.0033 69.8804 66.0575 69.94 66.1226 69.9855C66.1876 70.031 66.2559 70.0669 66.3275 70.0929C66.399 70.1189 66.4695 70.1373 66.5389 70.1481C66.6082 70.159 66.669 70.1644 66.721 70.1644C66.9855 70.1644 67.1915 70.0885 67.339 69.9367C67.4864 69.785 67.5601 69.5248 67.5601 69.1562V66.1249L67.6447 65.7606H68.3342ZM71.2354 65.7281C71.4653 65.7497 71.6723 65.8116 71.8566 65.9135C72.0409 66.0154 72.1981 66.1466 72.3282 66.307C72.4583 66.4675 72.558 66.6518 72.6274 66.8599C72.6968 67.0681 72.7315 67.2849 72.7315 67.5104C72.7315 67.6102 72.725 67.7121 72.712 67.8162H70.5329V67.2567H72.0029C72.0029 67.1483 71.9845 67.0421 71.9476 66.938C71.9108 66.8339 71.8577 66.7385 71.7883 66.6518C71.7189 66.565 71.6376 66.4924 71.5443 66.4338C71.4512 66.3753 71.3481 66.3395 71.2354 66.3265V65.7281ZM71.2094 68.7464C71.2571 68.7464 71.3156 68.7409 71.385 68.7301C71.4544 68.7193 71.5281 68.7008 71.6062 68.6748C71.6842 68.6488 71.7623 68.6141 71.8404 68.5707C71.9184 68.5274 71.9878 68.4753 72.0485 68.4146L72.3282 68.8439C72.1894 69.0174 72.0268 69.1486 71.8404 69.2375C71.6539 69.3264 71.4153 69.3708 71.1248 69.3708C70.8906 69.3708 70.6727 69.3231 70.4711 69.2277C70.2694 69.1323 70.096 69.0022 69.9507 68.8374C69.8054 68.6727 69.6905 68.4797 69.6059 68.2585C69.5213 68.0373 69.4791 67.801 69.4791 67.5494C69.4791 67.3066 69.5181 67.0767 69.5962 66.8599C69.6742 66.6431 69.7815 66.4534 69.9181 66.2908C70.0548 66.1281 70.213 65.9959 70.393 65.894C70.573 65.7921 70.7671 65.7346 70.9752 65.7216V66.333C70.8191 66.3634 70.6901 66.4273 70.5881 66.5249C70.4863 66.6225 70.406 66.7331 70.3475 66.8567C70.2889 66.9803 70.2488 67.1082 70.2271 67.2404C70.2055 67.3727 70.1946 67.4866 70.1946 67.582C70.1946 67.7468 70.2142 67.8996 70.2532 68.0406C70.2922 68.1815 70.354 68.304 70.4385 68.4081C70.5231 68.5122 70.6283 68.5946 70.754 68.6553C70.8798 68.716 71.0316 68.7464 71.2094 68.7464ZM74.4748 65.7606L74.5594 66.1249V69.3448H73.7918V65.7606H74.4748ZM76.4588 66.1574C76.5325 66.2311 76.5889 66.3146 76.6279 66.4079C76.667 66.5011 76.6962 66.5997 76.7158 66.7038C76.7352 66.8079 76.7472 66.913 76.7515 67.0193C76.7558 67.1255 76.758 67.2285 76.758 67.3283V69.2147V69.3448H75.9839V67.3933C75.9839 67.2502 75.9774 67.1126 75.9644 66.9803C75.9514 66.848 75.9221 66.732 75.8766 66.6322C75.8311 66.5325 75.7671 66.4534 75.6847 66.3948C75.6023 66.3363 75.4896 66.307 75.3465 66.307C75.2858 66.307 75.2066 66.3168 75.109 66.3363C75.0115 66.3558 74.915 66.3873 74.8196 66.4306V65.9427C74.9323 65.882 75.0559 65.83 75.1904 65.7866C75.3248 65.7433 75.4549 65.7216 75.5806 65.7216C75.7715 65.7216 75.933 65.7617 76.0653 65.8419C76.1976 65.9221 76.3287 66.0273 76.4588 66.1574ZM80.2056 66.6908C80.1406 66.6128 80.0527 66.5412 79.9422 66.4761C79.8316 66.4111 79.6831 66.372 79.4966 66.3591V65.7476C79.7308 65.7606 79.9313 65.8105 80.0983 65.8972C80.2653 65.984 80.416 66.1097 80.5504 66.2745L80.2056 66.6908ZM79.4966 68.7399C79.6484 68.7225 79.7785 68.6856 79.8869 68.6293C79.9953 68.5729 80.0972 68.5057 80.1926 68.4276L80.4788 68.8439C80.3488 69.0087 80.2078 69.1345 80.056 69.2212C79.9043 69.3079 79.7178 69.3578 79.4966 69.3708V68.7399ZM77.7207 67.5559C77.7207 67.3131 77.7566 67.0854 77.8281 66.873C77.8997 66.6604 78.0026 66.474 78.1371 66.3135C78.2715 66.153 78.4309 66.023 78.6152 65.9232C78.7995 65.8235 79.0066 65.765 79.2364 65.7476V66.3656C79.0239 66.4132 78.8537 66.5434 78.7258 66.7559C78.5979 66.9683 78.5339 67.2285 78.5339 67.5365C78.5339 67.6926 78.5501 67.8389 78.5826 67.9755C78.6152 68.1121 78.6607 68.2335 78.7193 68.3398C78.7778 68.446 78.8504 68.535 78.9372 68.6065C79.0239 68.678 79.1237 68.7225 79.2364 68.7399V69.3708C79.0022 69.3578 78.7919 69.3015 78.6054 69.2017C78.4189 69.1019 78.2607 68.9708 78.1306 68.8082C78.0005 68.6455 77.8997 68.4569 77.8281 68.2422C77.7566 68.0276 77.7207 67.7988 77.7207 67.5559ZM84.9997 65.7606C84.7656 66.3851 84.5585 66.9369 84.3785 67.4161C84.1986 67.8953 84.0403 68.316 83.9037 68.678C83.7671 69.0401 83.6467 69.347 83.5426 69.5985C83.4386 69.85 83.3432 70.0593 83.2565 70.2262C83.1697 70.3932 83.0884 70.5243 83.0125 70.6198C82.9366 70.7151 82.8585 70.7878 82.7783 70.8377C82.6981 70.8875 82.6103 70.9179 82.5149 70.9288C82.4195 70.9396 82.3111 70.945 82.1897 70.945C82.1506 70.945 82.105 70.9396 82.053 70.9288C82.001 70.9179 81.9511 70.9049 81.9034 70.8897C81.8557 70.8745 81.8123 70.8604 81.7733 70.8474C81.7343 70.8344 81.7083 70.8257 81.6952 70.8214C81.7126 70.7433 81.7299 70.6696 81.7473 70.6002C81.7603 70.5395 81.7744 70.4832 81.7896 70.4311C81.8048 70.3791 81.8167 70.3422 81.8254 70.3205C81.8601 70.3205 81.9121 70.3314 81.9815 70.3531C82.0509 70.3747 82.1029 70.3856 82.1376 70.3856C82.207 70.3856 82.2677 70.3824 82.3197 70.3758C82.3718 70.3693 82.4184 70.3509 82.4596 70.3205C82.5008 70.2902 82.5409 70.2436 82.5799 70.1807C82.6189 70.1178 82.6623 70.03 82.71 69.9173L82.9507 69.3448L84.2257 65.7606H84.9997ZM82.8141 69.0066L81.4806 65.7606H82.2482L83.1653 68.1674L83.0743 68.3886L82.8141 69.0066Z" fill="white"/>
<path fill-rule="evenodd" clip-rule="evenodd" d="M23.5001 59.8799H25.8807V0.068788L25.8923 0.0399145L25.8807 0.0396304H25.8751L23.4579 0L0 58.3009L2.07751 59.1142L9.40529 40.9374L16.2496 40.9728V38.7113H10.3029L23.5001 5.97437V59.8799Z" fill="white"/>
<path fill-rule="evenodd" clip-rule="evenodd" d="M24.3335 57.5441H52.3352V59.9098H24.3335V57.5441Z" fill="white"/>
<path fill-rule="evenodd" clip-rule="evenodd" d="M54.2886 51.0317H55.7417V59.8236H54.2886V51.0317ZM59.4172 55.8673H56.2301V54.8903H59.4172V55.8673ZM56.2301 58.7368H59.7835V59.8236H56.2301V58.7368ZM59.7835 51.0317V52.1185H56.2301V51.0317H59.7835ZM68.9541 59.8236H67.4765L65.193 53.2419L62.8974 59.8236H61.4076L64.4726 51.0439H65.9013L68.9541 59.8236ZM65.9868 57.0273L66.3287 58.0042H64.0452L64.3871 57.0273H65.9868ZM70.859 51.0317H72.2877V59.8236H70.859V51.0317ZM73.5088 51.0317C74.2496 51.0317 74.8988 51.1497 75.4564 51.3858C76.014 51.6219 76.4781 51.9353 76.8485 52.326C77.2189 52.7168 77.4957 53.1605 77.6789 53.6571C77.862 54.1536 77.9536 54.6624 77.9536 55.1834C77.9536 55.9079 77.8762 56.5266 77.7216 57.0395C77.5669 57.5524 77.3695 57.9818 77.1293 58.3278C76.8892 58.6738 76.6205 58.9465 76.3234 59.1459C76.0263 59.3454 75.7393 59.4939 75.4625 59.5916C75.1858 59.6893 74.9314 59.7524 74.6994 59.7809C74.4673 59.8094 74.2943 59.8236 74.1804 59.8236H72.7761V58.7735H73.7041C74.6729 58.7735 75.373 58.4641 75.8044 57.8454C76.2359 57.2268 76.4516 56.3272 76.4516 55.1468C76.4516 54.7805 76.4069 54.4182 76.3173 54.06C76.2278 53.7018 76.0589 53.3782 75.8106 53.0892C75.5622 52.8003 75.2224 52.5662 74.7909 52.3871C74.3595 52.208 73.8018 52.1185 73.118 52.1185H72.7761V51.0317H73.5088ZM84.0347 52.3993C83.994 52.3831 83.9451 52.3545 83.8882 52.3139C83.8312 52.2731 83.7518 52.2345 83.6501 52.1978C83.5483 52.1612 83.418 52.1307 83.2593 52.1062C83.1006 52.0818 82.899 52.0777 82.6548 52.094V50.8973C83.0049 50.9055 83.359 50.9422 83.7172 51.0073C84.0754 51.0724 84.3685 51.1782 84.5964 51.3247C84.5476 51.4306 84.4906 51.5446 84.4254 51.6666C84.3603 51.7888 84.3013 51.9027 84.2484 52.0085C84.1955 52.1144 84.1487 52.204 84.1079 52.2772C84.0673 52.3505 84.0428 52.3912 84.0347 52.3993ZM79.9195 53.3518C79.9195 53.0017 79.9786 52.6863 80.0966 52.4054C80.2147 52.1246 80.3754 51.8804 80.579 51.6727C80.7825 51.4652 81.0206 51.2983 81.2933 51.1721C81.566 51.0459 81.8571 50.9625 82.1664 50.9218V52.1795C81.914 52.2691 81.7024 52.4217 81.5314 52.6375C81.3605 52.8531 81.275 53.075 81.275 53.3029C81.275 53.6123 81.3584 53.8626 81.5253 54.0539C81.6922 54.2452 81.9059 54.4101 82.1664 54.5484V55.9161C81.9059 55.7859 81.6434 55.6474 81.3788 55.5009C81.1142 55.3544 80.8741 55.1814 80.6583 54.9819C80.4426 54.7825 80.2655 54.5525 80.1272 54.292C79.9888 54.0315 79.9195 53.7181 79.9195 53.3518ZM80.1149 58.2117C80.2289 58.2769 80.3693 58.34 80.5362 58.401C80.7031 58.4621 80.8781 58.5171 81.0613 58.5659C81.2445 58.6147 81.4277 58.6554 81.6108 58.688C81.794 58.7205 81.9669 58.7368 82.1298 58.7368H82.1664V59.8725H82.142C81.9547 59.8725 81.7574 59.8623 81.5497 59.8419C81.3422 59.8216 81.1366 59.787 80.9331 59.7381C80.7296 59.6893 80.5342 59.6242 80.3469 59.5428C80.1597 59.4614 79.9969 59.3596 79.8585 59.2375L80.1149 58.2117ZM82.6548 54.7927C82.9153 54.9148 83.182 55.043 83.4547 55.1773C83.7274 55.3116 83.9757 55.4765 84.1995 55.6719C84.4234 55.8673 84.6066 56.1033 84.7491 56.3801C84.8915 56.6569 84.9627 57.0029 84.9627 57.4181C84.9627 57.703 84.9098 57.9798 84.804 58.2484C84.6981 58.5171 84.5476 58.7613 84.3522 58.981C84.1568 59.2009 83.9166 59.386 83.6318 59.5367C83.3468 59.6873 83.0212 59.787 82.6548 59.8358V58.688C83.3061 58.5252 83.6318 58.0938 83.6318 57.3936C83.6318 57.1168 83.5402 56.8869 83.357 56.7037C83.1738 56.5205 82.9398 56.3475 82.6548 56.1847V54.7927Z" fill="white"/>
</svg>
