<?xml version="1.0" encoding="utf-8"?>
<!-- Generator: Adobe Illustrator 26.0.0, SVG Export Plug-In . SVG Version: 6.00 Build 0)  -->
<svg version="1.1" id="Слой_1" xmlns="http://www.w3.org/2000/svg" xmlns:xlink="http://www.w3.org/1999/xlink" x="0px" y="0px"
	 viewBox="0 0 1023.7 224.7" style="enable-background:new 0 0 1023.7 224.7;" xml:space="preserve">
<style type="text/css">
	.st0{fill:#1F4389;}
	.st1{fill:#E5A532;}
</style>
<g>
	<g>
		<path class="st0" d="M53.6,128.8c-0.9-18.6-5.9-37.9-15-58c-3.7,0-7.3-0.3-11-0.9v58.9H0V0h37.1C64.3,0,78,12.2,78,36.5
			c0,12.4-5,22-14.9,28.8c10.3,18,16.8,39.1,19.5,63.5H53.6z M36,22.8h-9.5v24.6c3.8,1.1,7.3,1.7,10.6,1.7c4.9,0,8.3-1.1,10.4-3.2
			c2-2.1,3-5.7,3-10.6C50.5,26.9,45.6,22.8,36,22.8z"/>
		<path class="st0" d="M157.9,122.5c-5.2,5.3-14.5,8-27.8,8c-13.5,0-22.8-2.6-28-7.9c-5.2-5.3-7.8-14.6-7.8-28.1V51
			c0-13.3,2.6-22.7,7.9-28c5.3-5.3,14.6-8,27.9-8s22.6,2.7,27.8,8c5.2,5.3,7.8,14.6,7.8,28v43.5
			C165.7,107.8,163.1,117.2,157.9,122.5z M139.8,48.3c0-4-0.6-6.9-1.7-8.4c-1.5-2.2-4.2-3.3-8.1-3.3c-4,0-6.8,1-8.3,3.1
			c-1.1,1.6-1.7,4.5-1.7,8.6v49c0,4.2,0.6,7,1.7,8.6c1.3,2.1,4.1,3.1,8.3,3.1c4,0,6.8-1,8.3-3.1c1-1.6,1.5-4.5,1.5-8.6V48.3z"/>
		<path class="st0" d="M242.6,123.3c-5.5,4.8-14.3,7.2-26.2,7.2c-13.5,0-22.8-2.3-28.1-6.8c-5.8-5-8.6-14.1-8.6-27.3V82.6h25.5v15.8
			c0,4.2,0.5,7,1.5,8.6c1.5,2.1,4.2,3.1,8.3,3.1c6.9,0,10.3-3.4,10.3-10.3c0-4.8-1.5-8.8-4.4-12.1c-2.2-2.2-7.3-5.9-15.2-11.2
			c-17-11.1-25.5-22-25.5-32.5c0-19.3,11.6-29,34.9-29c11.9,0,20.4,1.9,25.7,5.7c6.4,4.5,9.5,12.5,9.5,23.9v7.3h-25V41.7
			c0-2-1.3-3.5-3.9-4.8c-2.1-1-4.2-1.5-6.4-1.5c-6.4,0-9.5,2.4-9.5,7.2c0,1.2,0.8,2.6,2.5,4.2c1.7,1.6,6.1,4.8,13.5,9.5
			c1.7,1.1,4.2,2.8,7.5,5.1c7.8,5.1,13.4,10.2,16.7,15c4,5.9,6.1,13,6.1,21.5C251.6,109.7,248.6,118.2,242.6,123.3z"/>
		<path class="st0" d="M288.6,131c-8.4,0-14-2.1-16.7-6.4c-1.8-3.1-2.8-9.2-2.8-18.3v-69h-7.9V16.5h7.9V3.1l25.3-4v17.4h7.7v20.7
			h-7.7v64.4c0,4.6,2.6,7,7.7,7v20.2C298.1,130.3,293.5,131,288.6,131z"/>
		<path class="st0" d="M360.9,128.8V0h27.5v128.8H360.9z"/>
		<path class="st0" d="M454.1,128.8V47.2c0-4-0.6-6.9-1.7-8.4c-1.3-2.2-4-3.3-8.1-3.3s-6.7,0.9-7.9,2.7c-1.2,1.8-1.8,4.8-1.8,9.1
			v81.7h-25.5V16.5h23.7v10.8C441.4,19.1,449,15,455.6,15c10,0,16.8,3.5,20.4,10.5c2.6,4.9,3.9,12.9,3.9,24v79.3H454.1z"/>
		<path class="st0" d="M520,131c-8.4,0-14-2.1-16.7-6.4c-1.8-3.1-2.8-9.2-2.8-18.3v-69h-7.9V16.5h7.9V3.1l25.3-4v17.4h7.7v20.7h-7.7
			v64.4c0,4.6,2.6,7,7.7,7v20.2C529.4,130.3,524.9,131,520,131z"/>
		<path class="st0" d="M611.9,122.6c-5.2,5.3-14.5,7.9-27.8,7.9c-13.5,0-22.8-2.6-28-7.9c-5.2-5.3-7.8-14.6-7.8-28.1V51
			c0-13.3,2.6-22.7,7.9-28c5.3-5.3,14.6-8,27.9-8c13.3,0,22.6,2.6,27.8,7.9s7.8,14.6,7.8,28.1v25.3h-45.9v22c0,4.2,0.6,7.2,1.9,9
			s4.1,2.8,8.3,2.8c4,0,6.8-1,8.3-3.1c1.2-1.6,1.8-4.5,1.8-8.6V87.7h25.5v6.8C619.7,108,617.1,117.3,611.9,122.6z M594.1,47.9
			c0-4.3-0.6-7.3-1.7-9c-1.5-2.3-4.3-3.5-8.4-3.5c-4.3,0-7.2,1.2-8.6,3.5c-1.1,1.6-1.7,4.6-1.7,9v8.6h20.4V47.9z"/>
		<path class="st0" d="M637.5,128.8V0h25.7v128.8H637.5z"/>
		<path class="st0" d="M683.5,128.8V0h25.7v128.8H683.5z"/>
		<path class="st0" d="M790.8,122.6c-5.2,5.3-14.5,7.9-27.8,7.9c-13.5,0-22.8-2.6-28-7.9c-5.2-5.3-7.8-14.6-7.8-28.1V51
			c0-13.3,2.6-22.7,7.9-28c5.3-5.3,14.6-8,27.9-8c13.3,0,22.6,2.6,27.8,7.9s7.8,14.6,7.8,28.1v25.3h-45.9v22c0,4.2,0.6,7.2,1.9,9
			s4.1,2.8,8.3,2.8c4,0,6.8-1,8.3-3.1c1.2-1.6,1.8-4.5,1.8-8.6V87.7h25.5v6.8C798.6,108,796,117.3,790.8,122.6z M773.1,47.9
			c0-4.3-0.6-7.3-1.7-9c-1.5-2.3-4.3-3.5-8.4-3.5c-4.3,0-7.2,1.2-8.6,3.5c-1.1,1.6-1.7,4.6-1.7,9v8.6h20.4V47.9z"/>
		<path class="st0" d="M860.9,128.8c0-26.7-1.7-45.1-5.1-55.4c-3.1,2.4-7.8,5.9-14.3,10.3v45.1H816V0h25.5v62.9
			c7.6-5.6,12.8-12.5,15.8-20.6c2.4-6.6,3.7-15.2,3.7-25.9h25.7v6.6c0,12.7-3.4,24.2-10.3,34.5c6.9,10.5,10.3,26.9,10.3,49v22.2
			H860.9z"/>
		<path class="st0" d="M926.1,131c-8.4,0-14-2.1-16.7-6.4c-1.8-3.1-2.8-9.2-2.8-18.3v-69h-7.9V16.5h7.9V3.1l25.3-4v17.4h7.7v20.7
			H932v64.4c0,4.6,2.6,7,7.7,7v20.2C935.5,130.3,931,131,926.1,131z"/>
		<path class="st0" d="M999.9,128.8V118c-8.7,8.4-16.1,12.7-22.4,12.7c-15.8,0-23.7-8.7-23.7-26.2V87.7c0-6,0.8-10.9,2.4-14.7
			c2.8-6.5,10-12,21.5-16.5c4.5-1.7,11.4-4.2,20.6-7.5v-2.9c0-3.9-0.6-6.7-1.9-8.3c-1.3-1.6-3.9-2.4-7.8-2.4c-4.6,0-7.6,1.5-8.8,4.4
			c-0.6,1.5-0.9,5-0.9,10.6h-22.4v-7.3c0-10.4,3-17.8,9-22.2c5.3-3.9,13.3-5.9,24-5.9c11.9,0,20.5,2.3,25.9,7
			c5.6,5,8.4,13.4,8.4,25.1v81.7H999.9z M998.2,67.9c-5.9,2.9-10,5.3-12.3,7.2c-4,3.4-6.4,7.4-7,11.9c-0.1,1.3-0.2,2.9-0.2,4.6v6.8
			c0,4.2,0.5,7,1.5,8.6c1.5,2.1,4.2,3.1,8.3,3.1s6.7-1,8.1-2.9c1.1-1.5,1.7-4.4,1.7-8.8V67.9z"/>
	</g>
</g>
<g>
	<g>
		<path class="st1" d="M35.2,184.4v9.4c0,3.6,1.4,6.1,5.9,6.1c2.2,0,4.5-0.8,6.1-2v-13.5h5.1V213h-5.1v-11.5h-0.1
			c-1.9,1.3-5,2.2-7.7,2.2c-5.4,0-9.4-2.8-9.4-9.3v-10H35.2z"/>
		<path class="st1" d="M76.7,213l-0.4-3.6h-0.2c-1.6,2.2-4.7,4.3-8.7,4.3c-5.8,0-8.7-4.1-8.7-8.2c0-6.9,6.1-10.7,17.2-10.6v-0.6
			c0-2.4-0.6-6.6-6.5-6.6c-2.7,0-5.4,0.8-7.4,2.1l-1.2-3.4c2.4-1.5,5.8-2.5,9.4-2.5c8.7,0,10.9,6,10.9,11.7v10.7
			c0,2.5,0.1,4.9,0.5,6.8H76.7z M76,198.4c-5.7-0.1-12.1,0.9-12.1,6.4c0,3.4,2.2,5,4.9,5c3.7,0,6.1-2.4,6.9-4.8
			c0.2-0.5,0.3-1.1,0.3-1.7V198.4z"/>
		<path class="st1" d="M109.7,211.9c-1.4,0.7-4.4,1.7-8.2,1.7c-8.6,0-14.2-5.8-14.2-14.6c0-8.8,6-15.2,15.4-15.2
			c3.1,0,5.8,0.8,7.2,1.5l-1.2,4c-1.2-0.7-3.2-1.4-6-1.4c-6.6,0-10.1,4.8-10.1,10.8c0,6.6,4.3,10.7,9.9,10.7c3,0,4.9-0.8,6.4-1.4
			L109.7,211.9z"/>
		<path class="st1" d="M136.1,184.4v4.1h-8.9V213H122v-24.4h-8.9v-4.1H136.1z"/>
		<path class="st1" d="M145.6,184.4v11.5h13.6v-11.5h5.1V213h-5.1V200h-13.6V213h-5.1v-28.6H145.6z"/>
		<path class="st1" d="M188.7,213l-0.4-3.6h-0.2c-1.6,2.2-4.7,4.3-8.7,4.3c-5.8,0-8.7-4.1-8.7-8.2c0-6.9,6.1-10.7,17.2-10.6v-0.6
			c0-2.4-0.6-6.6-6.5-6.6c-2.7,0-5.4,0.8-7.4,2.1l-1.2-3.4c2.4-1.5,5.8-2.5,9.4-2.5c8.7,0,10.9,6,10.9,11.7v10.7
			c0,2.5,0.1,4.9,0.5,6.8H188.7z M187.9,198.4c-5.7-0.1-12.1,0.9-12.1,6.4c0,3.4,2.2,5,4.9,5c3.7,0,6.1-2.4,6.9-4.8
			c0.2-0.5,0.3-1.1,0.3-1.7V198.4z"/>
		<path class="st1" d="M222.6,213h-5.1v-12h-3.8c-2.2,0-3.7,0.6-4.8,1.6c-2.1,1.7-2.9,5.3-4,8c-0.4,0.9-0.8,1.7-1.2,2.4h-5.6
			c0.6-0.9,1.2-2,1.8-3.2c1.2-2.8,1.9-6.5,4.5-8.6c0.9-0.8,1.9-1.4,3.2-1.7v-0.2c-3.7-0.4-7.6-2.7-7.6-7.1c0-3,1.6-5,3.8-6.2
			c2.4-1.4,5.8-1.9,9.6-1.9c3.4,0,6.7,0.3,9.2,0.6V213z M217.5,187.8c-1.3-0.2-2.5-0.3-4.3-0.3c-3.5,0-7.7,1-7.7,5
			c0,3.7,4.5,5,7.6,5c2.1,0,3.2,0,4.4,0V187.8z"/>
		<path class="st1" d="M269.4,198.4c0,10.6-7.3,15.2-14.2,15.2c-7.7,0-13.7-5.7-13.7-14.7c0-9.6,6.3-15.2,14.2-15.2
			C263.9,183.7,269.4,189.7,269.4,198.4z M246.7,198.7c0,6.3,3.6,11,8.7,11c5,0,8.7-4.7,8.7-11.1c0-4.8-2.4-11-8.6-11
			C249.4,187.6,246.7,193.3,246.7,198.7z"/>
		<path class="st1" d="M297.6,174.7c-1.5,0.5-4.1,1-6,1.3c-4.6,0.7-8,2.2-10.2,5.4c-1.8,2.6-2.9,6.4-3.1,9.4h0.2
			c1.8-4.1,5.8-6.4,9.9-6.4c7,0,12.2,5,12.2,14.1c0,9.3-4.8,15.1-13.2,15.1c-10,0-13.3-9.6-13.3-19.1c0-6.5,1.4-11.8,4.4-15.8
			c2.8-4,6.7-5.8,12.3-6.7c2.3-0.4,5.1-0.8,7.1-1.5L297.6,174.7z M287.4,188.2c-3.1,0-5.3,1.6-6.4,3.9c-0.9,1.7-1.4,3.8-1.4,6.1
			c0,4.7,2.3,11.5,8,11.5c5.7,0,7.9-5.6,7.9-10.8C295.3,194.2,293.5,188.2,287.4,188.2z"/>
		<path class="st1" d="M312.1,184.4v24.5h10v-24.5h5.1v24.5h10v-24.5h5.1v24.7l2.9,0.1l-0.3,12.9h-4l-0.2-9.1H307v-28.6H312.1z"/>
		<path class="st1" d="M354,199.6c0.1,7,4.6,9.9,9.8,9.9c3.7,0,6-0.6,7.9-1.5l0.9,3.7c-1.8,0.8-5,1.8-9.5,1.8
			c-8.8,0-14.1-5.8-14.1-14.4c0-8.6,5.1-15.4,13.4-15.4c9.3,0,11.8,8.2,11.8,13.5c0,1.1-0.1,1.9-0.2,2.4H354z M369.3,195.9
			c0.1-3.3-1.4-8.4-7.2-8.4c-5.3,0-7.6,4.8-8,8.4H369.3z"/>
		<path class="st1" d="M406.6,198.4c0,10.6-7.3,15.2-14.2,15.2c-7.7,0-13.7-5.7-13.7-14.7c0-9.6,6.3-15.2,14.2-15.2
			C401,183.7,406.6,189.7,406.6,198.4z M383.9,198.7c0,6.3,3.6,11,8.7,11c5,0,8.7-4.7,8.7-11.1c0-4.8-2.4-11-8.6-11
			C386.6,187.6,383.9,193.3,383.9,198.7z"/>
		<path class="st1" d="M434.8,174.7c-1.5,0.5-4.1,1-6,1.3c-4.6,0.7-8,2.2-10.2,5.4c-1.8,2.6-2.9,6.4-3.1,9.4h0.2
			c1.8-4.1,5.8-6.4,9.9-6.4c7,0,12.2,5,12.2,14.1c0,9.3-4.8,15.1-13.2,15.1c-10,0-13.3-9.6-13.3-19.1c0-6.5,1.4-11.8,4.4-15.8
			c2.8-4,6.7-5.8,12.3-6.7c2.3-0.4,5.1-0.8,7.1-1.5L434.8,174.7z M424.5,188.2c-3.1,0-5.3,1.6-6.4,3.9c-0.9,1.7-1.4,3.8-1.4,6.1
			c0,4.7,2.3,11.5,8,11.5c5.7,0,7.9-5.6,7.9-10.8C432.5,194.2,430.7,188.2,424.5,188.2z"/>
		<path class="st1" d="M444.3,193.7c0-3.7-0.1-6.6-0.2-9.3h4.7l0.2,4.9h0.1c2.1-3.5,5.5-5.6,10.2-5.6c6.9,0,12.1,5.8,12.1,14.5
			c0,10.3-6.3,15.4-13,15.4c-3.8,0-7.1-1.7-8.8-4.5h-0.1v15.5h-5.1V193.7z M449.5,201.3c0,0.8,0.1,1.5,0.2,2.1
			c0.9,3.6,4.1,6.1,7.8,6.1c5.5,0,8.7-4.5,8.7-11c0-5.7-3-10.6-8.5-10.6c-3.5,0-6.8,2.5-7.9,6.4c-0.2,0.6-0.4,1.4-0.4,2.1V201.3z"/>
		<path class="st1" d="M493.7,213l-0.4-3.6h-0.2c-1.6,2.2-4.7,4.3-8.7,4.3c-5.8,0-8.7-4.1-8.7-8.2c0-6.9,6.1-10.7,17.2-10.6v-0.6
			c0-2.4-0.6-6.6-6.5-6.6c-2.7,0-5.4,0.8-7.4,2.1l-1.2-3.4c2.4-1.5,5.8-2.5,9.4-2.5c8.7,0,10.9,6,10.9,11.7v10.7
			c0,2.5,0.1,4.9,0.5,6.8H493.7z M493,198.4c-5.7-0.1-12.1,0.9-12.1,6.4c0,3.4,2.2,5,4.9,5c3.7,0,6.1-2.4,6.9-4.8
			c0.2-0.5,0.3-1.1,0.3-1.7V198.4z"/>
		<path class="st1" d="M508.7,196.4h2.5c4.4,0,7.3-2,7.3-4.7c0-2.5-2.3-4.1-5.6-4.1c-2.3,0-4.9,0.8-6.9,2l-1.3-3.2
			c2.9-1.8,6.2-2.6,9.5-2.6c4.4,0,9.7,1.9,9.7,7.5c0,3.5-3.2,5.8-6.4,6.5v0.1c4.3,0.4,7.8,3,7.8,7.1c0,6.2-6.3,8.5-12.3,8.5
			c-3.4,0-6.7-0.9-9.3-2.3l1.4-3.5c2.1,1.1,4.8,1.9,7.6,1.9c4.3,0,7-2.1,7-4.9c0-3.8-4-4.9-8.3-4.9h-2.6V196.4z"/>
		<path class="st1" d="M557.7,198.4c0,10.6-7.3,15.2-14.2,15.2c-7.7,0-13.7-5.7-13.7-14.7c0-9.6,6.3-15.2,14.2-15.2
			C552.1,183.7,557.7,189.7,557.7,198.4z M535,198.7c0,6.3,3.6,11,8.7,11c5,0,8.7-4.7,8.7-11.1c0-4.8-2.4-11-8.6-11
			C537.7,187.6,535,193.3,535,198.7z"/>
		<path class="st1" d="M564.1,184.7c2-0.4,5.7-0.6,9.1-0.6c4.8,0,12.7,0.8,12.7,7.1c0,3.5-2.7,5.7-6,6.4v0.1c4.2,0.6,7.3,3,7.3,7.1
			c0,7.5-9.4,8.4-15.1,8.4c-3.2,0-6.5-0.2-8-0.4V184.7z M569,209.5c1.5,0.2,2.5,0.2,4.2,0.2c3.5,0,8.7-0.8,8.7-5s-4.1-5-9.1-5H569
			V209.5z M569.1,196.4h3.9c3.8,0,7.8-1.1,7.8-4.5c0-2.8-2.5-4.2-7.7-4.2c-1.7,0-2.8,0.1-4,0.2V196.4z"/>
		<path class="st1" d="M609.6,213l-0.4-3.6H609c-1.6,2.2-4.7,4.3-8.7,4.3c-5.8,0-8.7-4.1-8.7-8.2c0-6.9,6.1-10.7,17.2-10.6v-0.6
			c0-2.4-0.6-6.6-6.5-6.6c-2.7,0-5.4,0.8-7.4,2.1l-1.2-3.4c2.4-1.5,5.8-2.5,9.4-2.5c8.7,0,10.9,6,10.9,11.7v10.7
			c0,2.5,0.1,4.9,0.5,6.8H609.6z M608.8,198.4c-5.7-0.1-12.1,0.9-12.1,6.4c0,3.4,2.2,5,4.9,5c3.7,0,6.1-2.4,6.9-4.8
			c0.2-0.5,0.3-1.1,0.3-1.7V198.4z"/>
		<path class="st1" d="M641.1,184.4v4.1h-8.9V213h-5.1v-24.4h-8.9v-4.1H641.1z"/>
		<path class="st1" d="M647.8,199.6c0.1,7,4.6,9.9,9.8,9.9c3.7,0,6-0.6,7.9-1.5l0.9,3.7c-1.8,0.8-5,1.8-9.5,1.8
			c-8.8,0-14.1-5.8-14.1-14.4c0-8.6,5.1-15.4,13.4-15.4c9.3,0,11.8,8.2,11.8,13.5c0,1.1-0.1,1.9-0.2,2.4H647.8z M663,195.9
			c0.1-3.3-1.4-8.4-7.2-8.4c-5.3,0-7.6,4.8-8,8.4H663z"/>
		<path class="st1" d="M696.2,184.4V213h-5.1v-24.5h-9.8v7.4c0,8-0.8,13.4-4.5,15.8c-1.4,1.1-3,1.8-5.7,1.8l-0.5-4.1
			c1-0.2,2.1-0.6,2.8-1.2c2.7-1.9,3-6,3-12.3v-11.5H696.2z"/>
		<path class="st1" d="M709.8,184.4v9.7c1.2-0.2,3.2-0.3,4.7-0.3c6.4,0,13.2,2,13.2,9.6c0,3-1.2,5-3,6.6c-3.1,2.7-8.2,3.3-12.4,3.3
			c-2.9,0-5.6-0.2-7.7-0.4v-28.5H709.8z M709.8,209.4c1,0.1,2.1,0.2,3.8,0.2c3.9,0,8.9-1.3,8.9-6.1c0-5-5.2-6-9-6
			c-1.4,0-2.5,0.1-3.7,0.3V209.4z"/>
		<path class="st1" d="M739.2,184.4v11.5h13.6v-11.5h5.1V213h-5.1V200h-13.6V213H734v-28.6H739.2z"/>
		<path class="st1" d="M782.2,213l-0.4-3.6h-0.2c-1.6,2.2-4.7,4.3-8.7,4.3c-5.8,0-8.7-4.1-8.7-8.2c0-6.9,6.1-10.7,17.2-10.6v-0.6
			c0-2.4-0.6-6.6-6.5-6.6c-2.7,0-5.4,0.8-7.4,2.1l-1.2-3.4c2.4-1.5,5.8-2.5,9.4-2.5c8.7,0,10.9,6,10.9,11.7v10.7
			c0,2.5,0.1,4.9,0.5,6.8H782.2z M781.4,198.4c-5.7-0.1-12.1,0.9-12.1,6.4c0,3.4,2.2,5,4.9,5c3.7,0,6.1-2.4,6.9-4.8
			c0.2-0.5,0.3-1.1,0.3-1.7V198.4z"/>
		<path class="st1" d="M816.1,213H811v-12h-3.8c-2.2,0-3.7,0.6-4.8,1.6c-2.1,1.7-2.9,5.3-4,8c-0.4,0.9-0.8,1.7-1.2,2.4h-5.6
			c0.6-0.9,1.2-2,1.8-3.2c1.2-2.8,1.9-6.5,4.5-8.6c0.9-0.8,1.9-1.4,3.2-1.7v-0.2c-3.7-0.4-7.6-2.7-7.6-7.1c0-3,1.6-5,3.8-6.2
			c2.4-1.4,5.8-1.9,9.6-1.9c3.4,0,6.7,0.3,9.2,0.6V213z M811,187.8c-1.3-0.2-2.5-0.3-4.3-0.3c-3.5,0-7.7,1-7.7,5c0,3.7,4.5,5,7.6,5
			c2.1,0,3.2,0,4.4,0V187.8z"/>
		<path class="st1" d="M842,184.4v24.5h10v-24.5h5.1v24.5h10v-24.5h5.1V213h-35.3v-28.6H842z"/>
		<path class="st1" d="M885.8,184.4v12.4h1.2l10.7-12.4h6.3l-12.5,12.9c4.6,0.5,7.4,3.5,9.6,8.7c0.8,1.9,1.8,4.7,3.1,7h-5.4
			c-0.8-1.2-1.8-3.5-2.7-5.8c-1.9-4.6-4.6-6.7-9.4-6.7h-1V213h-5.1v-28.6H885.8z"/>
		<path class="st1" d="M934.4,198.4c0,10.6-7.3,15.2-14.2,15.2c-7.7,0-13.7-5.7-13.7-14.7c0-9.6,6.3-15.2,14.2-15.2
			C928.9,183.7,934.4,189.7,934.4,198.4z M911.8,198.7c0,6.3,3.6,11,8.7,11c5,0,8.7-4.7,8.7-11.1c0-4.8-2.4-11-8.6-11
			C914.4,187.6,911.8,193.3,911.8,198.7z"/>
		<path class="st1" d="M962.7,184.4V213h-5.1v-24.5h-9.8v7.4c0,8-0.8,13.4-4.5,15.8c-1.4,1.1-3,1.8-5.7,1.8l-0.5-4.1
			c1-0.2,2.1-0.6,2.8-1.2c2.7-1.9,3-6,3-12.3v-11.5H962.7z"/>
		<path class="st1" d="M987,213l-0.4-3.6h-0.2c-1.6,2.2-4.7,4.3-8.7,4.3c-5.8,0-8.7-4.1-8.7-8.2c0-6.9,6.1-10.7,17.2-10.6v-0.6
			c0-2.4-0.6-6.6-6.5-6.6c-2.7,0-5.4,0.8-7.4,2.1l-1.2-3.4c2.4-1.5,5.8-2.5,9.4-2.5c8.7,0,10.9,6,10.9,11.7v10.7
			c0,2.5,0.1,4.9,0.5,6.8H987z M986.2,198.4c-5.7-0.1-12.1,0.9-12.1,6.4c0,3.4,2.2,5,4.9,5c3.7,0,6.1-2.4,6.9-4.8
			c0.2-0.5,0.3-1.1,0.3-1.7V198.4z"/>
	</g>
</g>
</svg>
